<svg xmlns="http://www.w3.org/2000/svg" width="162" height="162" viewBox="0 0 162 162">
  <g fill="none" fill-rule="evenodd">
    <circle cx="81" cy="81" r="81" fill="#BACED5"/>
    <g transform="translate(22 33)">
      <path fill="#E53D17" d="M5.12,95.5936915 C7.93206841,94.1876573 6.12,79.5936915 11.12,72.5936915 C16.12,65.5936915 18.12,62.5936915 26.12,58.5936915 C34.12,54.5936915 39.12,49.5936915 48.12,49.5936915 C57.12,49.5936915 63.12,49.5936915 69.12,49.5936915 C75.12,49.5936915 83.12,53.5936915 87.12,53.5936915 C91.12,53.5936915 99.12,60.5936915 102.12,64.5936915 C105.12,68.5936915 111.12,72.5936915 111.12,77.5936915 C111.12,82.5936915 114.12,82.5936915 114.12,82.5936915 C114.12,82.5936915 117.12,85.5936915 117.12,77.5936915 C117.12,69.5936915 114.12,55.5936915 108.12,49.5936915 C102.12,43.5936915 96,31.1986298 92,28.1986298 C88,25.1986298 84.24,21.9887533 79.12,19.5936915 C74,17.1986298 72,15.1986298 71,13.5936915 C70,11.9887533 74,10.1986298 74,6.19862982 C74,2.19862982 73,1.19862982 68,0.198629816 C63,-0.801370184 58,2.19862982 56,4.19862982 C54,6.19862982 54,9.59369154 53,12 C52,14.4063085 40.12,14.5936915 36.12,19.5936915 C32.12,24.5936915 19.12,30.5936915 19.12,34.5936915 C19.12,38.5936915 5.12,48.5936915 5.12,53.5936915 C5.12,58.5936915 -2.88,68.5936915 1.12,77.5936915 C5.12,86.5936915 2.30793159,96.9997257 5.12,95.5936915 Z"/>
      <path fill="#CE321C" d="M3.57582931 61C5.68183527 61 10.5565827 57.3181818 15.2104183 53.6363636 19.8642538 49.9545455 16.3738772 45.0454545 26.8450072 45.0454545 37.3161373 45.0454545 40.806514 40.1363636 46.6238084 40.1363636 50.5020048 40.1363636 56.7071189 40.1363636 65.2391508 40.1363636 76.8737397 43.4090909 84.2423127 45.0454545 87.3448698 45.0454545 91.9987054 45.0454545 101.296419 51.1818182 104.796753 51.1818182 108.297087 51.1818182 110.614048 51.1818182 102.469835 46.2727273 94.3256232 41.3636364 88.5083287 37.6818182 82.6910342 37.6818182 76.8737397 37.6818182 69.8929864 34 67.5660686 34 65.2391508 34 55.9314796 34 51.277644 34 46.6238084 34 33.8257606 37.6818182 30.3353839 37.6818182 28.0084661 37.6818182 22.9668109 40.1363636 15.2104183 45.0454545L7.066206 53.6363636C3.33528423 58.5454545 2.17182533 61 3.57582931 61zM56 12.2725425C56 11.2725425 57 12.2725425 59 9.27254249 61 6.27254249 61 5.27254249 63 4.27254249 65 3.27254249 69 1.27254249 69 2.27254249 69 3.27254249 68 4.27254249 66 5.27254249 64 6.27254249 61.5 7.27254249 62 8.27254249 62.5 9.27254249 60 10.2725425 60 11.2725425 60 12.2725425 56 13.2725425 56 12.2725425z"/>
      <path fill="#CE321C" d="M58.696473,19.7548099 C58.696473,18.1830982 59.2097691,19.7548099 60.2363614,15.0396748 C61.2629537,10.3245397 61.2629537,8.75282795 62.2895459,7.18111625 C63.3161382,5.60940454 65.3693227,2.46598113 65.3693227,4.03769283 C65.3693227,5.60940454 64.8560266,7.18111625 63.8294343,8.75282795 C62.8028421,10.3245397 61.5196017,11.8962514 61.7762498,13.4679631 C62.0328979,15.0396748 60.7496575,16.6113865 60.7496575,18.1830982 C60.7496575,19.7548099 58.696473,21.3265216 58.696473,19.7548099 Z" opacity=".469" transform="rotate(70 62.033 12.008)"/>
      <path fill="#CE321C" d="M28.121098,40.2766904 C28.121098,38.2595967 28.4287903,40.2766904 29.044175,34.2254092 C29.6595596,28.1741279 29.6595596,26.1570342 30.2749442,24.1399404 C30.8903288,22.1228467 32.121098,18.0886591 32.121098,20.1057529 C32.121098,22.1228467 31.8134057,24.1399404 31.1980211,26.1570342 C30.5826365,28.1741279 29.8134057,30.1912217 29.9672519,32.2083154 C30.121098,34.2254092 29.3518673,36.2425029 29.3518673,38.2595967 C29.3518673,40.2766904 28.121098,42.2937842 28.121098,40.2766904 Z" transform="rotate(30 30.121 30.334)"/>
      <path fill="#CE321C" d="M39.4000415,36.7846117 C39.4000415,34.7675179 39.7077338,36.7846117 40.3231184,30.7333304 C40.938503,24.6820491 40.938503,22.6649554 41.5538876,20.6478616 C42.1692722,18.6307679 43.4000415,14.5965804 43.4000415,16.6136741 C43.4000415,18.6307679 43.0923492,20.6478616 42.4769645,22.6649554 C41.8615799,24.6820491 41.0923492,26.6991429 41.2461953,28.7162366 C41.4000415,30.7333304 40.6308107,32.7504242 40.6308107,34.7675179 C40.6308107,36.7846117 39.4000415,38.8017054 39.4000415,36.7846117 Z" transform="rotate(19 41.4 26.842)"/>
      <path fill="#CE321C" d="M53.1877991,34.7539446 C53.1877991,32.7368508 53.4954914,34.7539446 54.110876,28.7026633 C54.7262606,22.651382 54.7262606,20.6342883 55.3416452,18.6171945 C55.9570298,16.6001008 57.1877991,12.5659132 57.1877991,14.583007 C57.1877991,16.6001008 56.8801068,18.6171945 56.2647222,20.6342883 C55.6493375,22.651382 54.8801068,24.6684758 55.0339529,26.6855695 C55.1877991,28.7026633 54.4185683,30.719757 54.4185683,32.7368508 C54.4185683,34.7539446 53.1877991,36.7710383 53.1877991,34.7539446 Z" transform="rotate(-1 55.188 24.811)"/>
      <path fill="#CE321C" d="M67.1156614,34.8706947 C67.1156614,32.8536009 67.4233537,34.8706947 68.0387384,28.8194134 C68.654123,22.7681322 68.654123,20.7510384 69.2695076,18.7339447 C69.8848922,16.7168509 71.1156614,12.6826634 71.1156614,14.6997571 C71.1156614,16.7168509 70.8079691,18.7339447 70.1925845,20.7510384 C69.5771999,22.7681322 68.8079691,24.7852259 68.9618153,26.8023197 C69.1156614,28.8194134 68.3464307,30.8365072 68.3464307,32.8536009 C68.3464307,34.8706947 67.1156614,36.8877885 67.1156614,34.8706947 Z" transform="scale(-1 1) rotate(6 0 -1293.877)"/>
      <path fill="#CE321C" d="M78.1156614,39.8706947 C78.1156614,37.8536009 78.4233537,39.8706947 79.0387384,33.8194134 C79.654123,27.7681322 79.654123,25.7510384 80.2695076,23.7339447 C80.8848922,21.7168509 82.1156614,17.6826634 82.1156614,19.6997571 C82.1156614,21.7168509 81.8079691,23.7339447 81.1925845,25.7510384 C80.5771999,27.7681322 79.8079691,29.7852259 79.9618153,31.8023197 C80.1156614,33.8194134 79.3464307,35.8365072 79.3464307,37.8536009 C79.3464307,39.8706947 78.1156614,41.8877885 78.1156614,39.8706947 Z" transform="scale(-1 1) rotate(6 0 -1498.77)"/>
      <path fill="#CE321C" d="M89.1156614,45.8706947 C89.1156614,43.8536009 89.4233537,45.8706947 90.0387384,39.8194134 C90.654123,33.7681322 90.654123,31.7510384 91.2695076,29.7339447 C91.8848922,27.7168509 93.1156614,23.6826634 93.1156614,25.6997571 C93.1156614,27.7168509 92.8079691,29.7339447 92.1925845,31.7510384 C91.5771999,33.7681322 90.8079691,35.7852259 90.9618153,37.8023197 C91.1156614,39.8194134 90.3464307,41.8365072 90.3464307,43.8536009 C90.3464307,45.8706947 89.1156614,47.8877885 89.1156614,45.8706947 Z" transform="scale(-1 1) rotate(6 0 -1702.662)"/>
    </g>
  </g>
</svg>
